<?xml version="1.0" standalone="no"?>
<!DOCTYPE svg PUBLIC "-//W3C//DTD SVG 20010904//EN"
 "http://www.w3.org/TR/2001/REC-SVG-20010904/DTD/svg10.dtd">
<svg version="1.0" xmlns="http://www.w3.org/2000/svg"
 width="250.000000pt" height="50.000000pt" viewBox="0 0 250.000000 50.000000"
 preserveAspectRatio="xMidYMid meet">

<g transform="translate(0.000000,50.000000) scale(0.100000,-0.100000)"
fill="#5965E0" stroke="none">
<path d="M291 474 c-13 -9 -29 -31 -37 -49 -11 -26 -20 -33 -51 -38 -91 -15
-160 -104 -151 -197 3 -27 17 -68 32 -94 l27 -46 144 0 145 0 27 42 c24 36 28
52 28 113 0 63 -3 76 -29 109 -29 39 -94 75 -133 76 -42 0 -21 52 28 69 17 6
28 15 24 21 -9 14 -27 12 -54 -6z m-5 -209 c-3 -8 -9 -22 -12 -30 -5 -13 7
-15 79 -15 47 0 89 -4 92 -10 3 -5 1 -10 -4 -10 -6 0 -11 -7 -11 -15 0 -8 -4
-15 -10 -15 -5 0 -10 7 -10 15 0 8 -7 15 -15 15 -8 0 -15 -7 -15 -15 0 -8 -4
-15 -10 -15 -5 0 -10 7 -10 15 0 8 -7 15 -15 15 -8 0 -15 -7 -15 -15 0 -8 -4
-15 -10 -15 -5 0 -10 7 -10 15 0 8 -9 15 -20 15 -15 0 -20 -7 -20 -25 0 -14
-4 -25 -10 -25 -5 0 -10 11 -10 25 0 18 -5 25 -20 25 -11 0 -20 -7 -20 -15 0
-8 -4 -15 -10 -15 -5 0 -10 7 -10 15 0 8 -9 15 -20 15 -11 0 -20 -7 -20 -15 0
-8 -4 -15 -10 -15 -5 0 -10 7 -10 15 0 8 -4 15 -10 15 -5 0 -10 -7 -10 -15 0
-8 -4 -15 -10 -15 -5 0 -10 7 -10 15 0 8 -7 15 -16 15 -8 0 -12 5 -9 10 3 6
47 10 96 10 l89 0 -15 23 c-18 28 -12 37 28 37 22 0 28 -4 23 -15z"/>
<path d="M690 235 c0 -108 1 -115 20 -115 17 0 20 7 20 40 0 38 2 40 30 40 70
0 113 50 89 103 -15 32 -49 47 -109 47 l-50 0 0 -115z m115 40 c0 -27 -3 -30
-37 -33 -38 -3 -38 -3 -38 33 0 36 0 36 38 33 34 -3 37 -6 37 -33z"/>
<path d="M944 340 c-36 -14 -54 -50 -54 -106 0 -61 25 -99 71 -109 66 -15 114
32 114 110 0 87 -59 134 -131 105z m74 -42 c16 -16 16 -110 0 -126 -34 -34
-88 4 -88 63 0 59 54 97 88 63z"/>
<path d="M1110 236 c0 -109 1 -116 20 -116 18 0 20 7 20 81 0 44 4 78 8 75 4
-3 19 -39 32 -81 17 -54 28 -75 39 -73 8 2 26 37 42 83 l27 80 1 -82 c1 -76 3
-83 21 -83 19 0 20 7 20 115 l0 115 -28 0 c-27 0 -30 -5 -52 -76 -13 -41 -27
-77 -31 -80 -5 -2 -19 30 -32 73 -24 74 -27 78 -56 81 l-31 3 0 -115z"/>
<path d="M1431 336 c-72 -40 -67 -175 8 -206 58 -24 114 10 127 75 18 100 -58
174 -135 131z m77 -38 c7 -7 12 -35 12 -63 0 -55 -12 -75 -45 -75 -33 0 -45
20 -45 75 0 55 12 75 45 75 12 0 26 -5 33 -12z"/>
<path d="M1610 235 l0 -117 55 4 c81 7 105 33 105 113 0 80 -24 106 -105 113
l-55 4 0 -117z m110 56 c5 -11 10 -36 10 -56 0 -52 -15 -75 -50 -75 l-30 0 0
75 0 75 30 0 c19 0 33 -7 40 -19z"/>
<path d="M1842 325 c-30 -25 -32 -31 -32 -89 0 -54 3 -66 26 -87 37 -35 98
-33 130 4 19 22 24 40 24 82 0 66 -27 103 -81 111 -28 5 -41 1 -67 -21z m92
-37 c33 -47 9 -128 -38 -128 -34 0 -46 19 -46 75 0 28 5 56 12 63 19 19 55 14
72 -10z"/>
<path d="M2030 235 c0 -108 1 -115 20 -115 17 0 20 7 20 46 l0 45 38 -3 c35
-3 37 -5 42 -43 4 -32 9 -41 28 -43 21 -3 22 -1 16 40 -4 24 -12 50 -19 58
-11 12 -11 17 1 28 22 20 17 58 -12 81 -20 15 -41 21 -80 21 l-54 0 0 -115z
m115 55 c9 -29 -2 -40 -41 -40 -31 0 -34 2 -34 30 0 28 3 30 34 30 26 0 36 -5
41 -20z"/>
<path d="M2281 336 c-72 -40 -67 -175 8 -206 58 -24 114 10 127 75 18 100 -58
174 -135 131z m77 -38 c7 -7 12 -35 12 -63 0 -55 -12 -75 -45 -75 -33 0 -45
20 -45 75 0 55 12 75 45 75 12 0 26 -5 33 -12z"/>
</g>
</svg>
