<svg width="250" height="50" viewBox="0 0 250 50" fill="none" xmlns="http://www.w3.org/2000/svg">

<g transform="translate(0.000000,50.000000) scale(0.100000,-0.100000)"
fill="#5965E0" stroke="none">
<path d="M0 250 l0 -250 1250 0 1250 0 0 250 0 250 -1250 0 -1250 0 0 -250z
m256 196 c19 -19 34 -41 34 -49 0 -9 17 -19 43 -25 129 -33 192 -159 138 -277
-33 -73 -41 -76 -196 -73 l-138 3 -30 37 c-32 40 -45 107 -33 173 11 59 91
135 143 135 10 0 25 5 33 10 13 9 11 14 -13 35 -15 14 -35 25 -43 25 -14 0
-19 21 -7 33 14 15 36 6 69 -27z m684 -46 c11 -11 20 -27 20 -35 0 -8 5 -15
10 -15 6 0 10 7 10 15 0 52 102 75 147 33 22 -20 23 -29 23 -152 0 -119 -2
-132 -22 -153 -23 -25 -83 -32 -118 -13 -25 13 -40 62 -40 134 -1 60 -1 60
-14 30 -15 -33 -33 -44 -72 -44 -23 0 -24 -3 -24 -65 l0 -65 -35 0 -35 0 0
175 0 175 65 0 c52 0 69 -4 85 -20z m323 3 c3 -10 11 -56 18 -103 l13 -85 16
100 16 100 42 3 42 3 0 -175 0 -176 -30 0 -30 0 -2 68 -1 67 -10 -67 c-10 -68
-10 -68 -43 -68 l-32 0 -12 73 c-16 102 -18 103 -19 10 l-1 -83 -30 0 -30 0 0
175 0 175 44 0 c34 0 46 -4 49 -17z m317 7 c28 -15 40 -65 40 -165 0 -100 -12
-150 -40 -165 -33 -18 -92 -12 -117 12 -22 20 -23 29 -23 152 0 119 2 132 22
153 23 25 83 32 118 13z m216 -11 c17 -19 19 -37 19 -154 0 -167 -5 -175 -107
-175 l-68 0 0 175 0 175 68 0 c57 0 72 -4 88 -21z m191 -1 c22 -20 23 -29 23
-152 0 -119 -2 -132 -22 -153 -15 -16 -33 -23 -60 -23 -80 0 -98 32 -98 176 0
139 19 174 94 174 27 0 47 -7 63 -22z m204 1 c18 -18 20 -29 15 -82 -7 -80 -7
-79 2 -170 l7 -77 -32 0 c-33 0 -33 0 -33 51 0 56 -13 89 -35 89 -12 0 -15
-15 -15 -70 l0 -70 -30 0 -30 0 0 175 0 175 65 0 c53 0 69 -4 86 -21z m190 2
c23 -19 24 -24 24 -156 0 -132 -1 -137 -24 -156 -15 -12 -39 -19 -66 -19 -35
0 -48 5 -64 26 -19 24 -21 40 -21 149 0 109 2 125 21 149 16 21 29 26 64 26
27 0 51 -7 66 -19z m-1728 -132 c64 -26 77 -35 77 -54 0 -18 -13 -28 -75 -54
-41 -17 -79 -31 -85 -31 -6 0 -10 12 -8 27 2 22 11 29 52 43 l48 16 -48 15
c-41 12 -50 19 -52 42 -2 15 0 27 5 27 4 0 43 -14 86 -31z"/>
<path d="M205 338 c-16 -6 -43 -22 -59 -37 -27 -25 -35 -39 -50 -88 l-7 -23
185 0 186 0 0 24 c0 37 -41 89 -90 114 -48 24 -113 28 -165 10z m105 -83 c0
-12 -24 -55 -31 -55 -9 0 -29 33 -29 49 0 6 14 11 30 11 17 0 30 -2 30 -5z"/>
<path d="M96 153 c8 -35 22 -63 42 -85 13 -15 34 -18 143 -18 l128 0 21 30
c12 16 23 47 25 67 3 21 2 30 -1 21 -7 -22 -24 -24 -24 -3 0 8 -7 15 -15 15
-8 0 -15 -7 -15 -15 0 -8 -4 -15 -10 -15 -5 0 -10 7 -10 15 0 8 -7 15 -15 15
-8 0 -15 -7 -15 -15 0 -8 -4 -15 -10 -15 -5 0 -10 7 -10 15 0 8 -9 15 -20 15
-15 0 -20 -7 -20 -25 0 -14 -4 -25 -10 -25 -5 0 -10 11 -10 25 0 18 -5 25 -20
25 -11 0 -20 -7 -20 -15 0 -8 -4 -15 -10 -15 -5 0 -10 7 -10 15 0 21 -27 19
-39 -2 -10 -17 -10 -17 -11 0 0 9 -7 17 -15 17 -8 0 -15 -7 -15 -15 0 -8 -4
-15 -10 -15 -5 0 -10 7 -10 15 0 8 -5 15 -10 15 -6 0 -8 -11 -4 -27z"/>
<path d="M860 310 c0 -53 2 -61 18 -58 25 5 25 111 0 116 -16 3 -18 -5 -18
-58z"/>
<path d="M1047 363 c-12 -11 -8 -231 3 -238 6 -4 17 -1 25 5 19 16 21 210 3
228 -14 14 -22 15 -31 5z"/>
<path d="M1512 358 c-19 -19 -16 -212 3 -228 29 -24 36 3 33 120 -3 112 -10
134 -36 108z"/>
<path d="M1710 245 c0 -115 2 -126 18 -123 15 3 17 17 17 123 0 106 -2 120
-17 123 -16 3 -18 -8 -18 -123z"/>
<path d="M1907 363 c-12 -11 -8 -231 3 -238 6 -4 17 -1 25 5 19 16 21 210 3
228 -14 14 -22 15 -31 5z"/>
<path d="M2100 314 c0 -47 3 -55 17 -52 41 8 39 108 -2 108 -12 0 -15 -13 -15
-56z"/>
<path d="M2305 358 c-3 -8 -4 -63 -3 -124 2 -89 6 -109 18 -109 12 0 15 20 15
119 0 87 -3 120 -12 123 -7 3 -15 -2 -18 -9z"/>
</g>
</svg>
